<?xml version="1.0" standalone="no"?>
<!DOCTYPE svg PUBLIC "-//W3C//DTD SVG 20010904//EN"
 "http://www.w3.org/TR/2001/REC-SVG-20010904/DTD/svg10.dtd">
<svg version="1.0" xmlns="http://www.w3.org/2000/svg"
 width="200.000000pt" height="200.000000pt" viewBox="0 0 200.000000 200.000000"
 preserveAspectRatio="xMidYMid meet">
<metadata>
Created by potrace 1.14, written by Peter Selinger 2001-2017
</metadata>
<g transform="translate(0.000000,200.000000) scale(0.100000,-0.100000)"
fill="#000000" stroke="none">
<path d="M730 1940 c-1 -119 -45 -253 -95 -286 -60 -40 -164 -25 -296 42 l-68
34 30 -61 c44 -89 60 -136 66 -204 4 -52 2 -65 -19 -94 -24 -36 -31 -41 -88
-65 -51 -21 -76 -26 -165 -33 -44 -3 -81 -7 -82 -8 -2 -1 21 -17 50 -36 100
-65 167 -139 187 -208 18 -63 -54 -161 -184 -247 -31 -20 -55 -38 -53 -40 1
-1 29 -4 62 -5 78 -3 198 -33 236 -60 80 -57 77 -167 -11 -340 l-28 -56 68 33
c72 36 166 64 212 64 103 0 162 -93 175 -275 3 -44 6 -81 7 -82 2 -2 22 27 46
62 45 69 129 151 168 166 85 33 166 -17 276 -171 l46 -64 0 49 c1 126 37 243
87 284 59 48 159 37 304 -33 l67 -33 -33 66 c-38 74 -65 167 -65 221 0 96 94
152 283 168 l80 7 -55 37 c-119 79 -188 161 -188 225 0 70 72 159 190 233 l55
35 -83 7 c-145 12 -237 49 -268 110 -13 25 -15 47 -10 97 3 35 10 69 16 75 5
5 10 16 10 23 0 8 15 45 34 83 l34 69 -58 -30 c-134 -68 -240 -85 -297 -50
-56 35 -89 123 -101 264 l-7 80 -38 -57 c-162 -245 -279 -246 -451 -6 l-46 64
0 -54z m420 -275 c52 -9 159 -54 218 -92 273 -173 384 -520 265 -823 -161
-406 -646 -556 -1015 -313 -149 98 -265 279 -293 458 -30 198 34 412 171 564
161 179 393 252 654 206z"/>
<path d="M872 1585 c-165 -36 -333 -166 -406 -315 -89 -182 -83 -394 17 -570
40 -71 147 -178 217 -217 129 -72 287 -97 427 -67 220 46 411 238 458 459 29
139 3 299 -68 425 -40 70 -146 177 -217 217 -126 72 -290 97 -428 68z"/>
</g>
</svg>
